<svg width="18" height="22" viewBox="0 0 18 22" fill="none" xmlns="http://www.w3.org/2000/svg">
<path d="M15.4048 10.0586C16.1483 9.15031 16.607 8.04258 16.7231 6.87451C17.0835 3.14893 14.1602 0 10.5186 0H0.78125C0.57405 0 0.375336 0.08231 0.228823 0.228823C0.08231 0.375336 0 0.57405 0 0.78125V3.125C0 3.3322 0.08231 3.53091 0.228823 3.67743C0.375336 3.82394 0.57405 3.90625 0.78125 3.90625H2.3374V17.9688H0.78125C0.57405 17.9688 0.375336 18.0511 0.228823 18.1976C0.08231 18.3441 0 18.5428 0 18.75V21.0938C0 21.301 0.08231 21.4997 0.228823 21.6462C0.375336 21.7927 0.57405 21.875 0.78125 21.875H11.002C14.459 21.875 17.5518 19.3481 17.8867 15.8984C18.1182 13.5327 17.0864 11.4033 15.4048 10.0586ZM6.2334 3.90625H10.5186C11.1402 3.90625 11.7363 4.15318 12.1758 4.59272C12.6154 5.03226 12.8623 5.6284 12.8623 6.25C12.8623 6.8716 12.6154 7.46774 12.1758 7.90728C11.7363 8.34682 11.1402 8.59375 10.5186 8.59375H6.2334V3.90625ZM10.5186 17.9688H6.2334V12.5H10.5186C11.2438 12.5 11.9393 12.7881 12.452 13.3009C12.9648 13.8137 13.2529 14.5092 13.2529 15.2344C13.2529 15.9596 12.9648 16.6551 12.452 17.1679C11.9393 17.6807 11.2438 17.9688 10.5186 17.9688Z" fill="white"/>
</svg>
