<svg width="816" height="816" viewBox="0 0 816 816" fill="none" xmlns="http://www.w3.org/2000/svg">
<circle cx="408" cy="408" r="404" fill="#E4F4F3" stroke="#05445E" stroke-width="8"/>
<rect width="500" height="500" transform="translate(158 158)" fill="#E4F4F3"/>
<path d="M349 195C342.051 195 335.239 196.931 329.324 200.578C323.408 204.224 318.622 209.442 315.5 215.65L300.75 245H258.5C241.924 245 226.027 251.585 214.306 263.306C202.585 275.027 196 290.924 196 307.5V507.5C196 524.076 202.585 539.973 214.306 551.694C226.027 563.415 241.924 570 258.5 570H385.9C381.812 562.01 378.521 553.636 376.075 545H258.525C248.579 545 239.041 541.049 232.008 534.017C224.976 526.984 221.025 517.446 221.025 507.5V307.5C221.025 297.554 224.976 288.016 232.008 280.983C239.041 273.951 248.579 270 258.525 270H308.475C310.79 269.995 313.059 269.348 315.027 268.129C316.996 266.911 318.588 265.17 319.625 263.1L337.825 226.875C338.868 224.806 340.465 223.067 342.438 221.853C344.411 220.639 346.683 219.998 349 220H443.1C445.424 219.995 447.703 220.639 449.681 221.858C451.659 223.076 453.259 224.823 454.3 226.9L472.375 263.075C473.414 265.149 475.01 266.892 476.983 268.111C478.957 269.329 481.231 269.975 483.55 269.975H533.525C543.471 269.975 553.009 273.926 560.041 280.958C567.074 287.991 571.025 297.529 571.025 307.475V385.05C579.934 389.614 588.317 395.138 596.025 401.525V307.475C596.025 290.899 589.44 275.002 577.719 263.281C565.998 251.56 550.101 244.975 533.525 244.975H491.275L476.65 215.725C473.534 209.496 468.745 204.257 462.819 200.596C456.893 196.936 450.065 194.998 443.1 195H349ZM395.9 295C418.224 295.001 439.906 302.468 457.496 316.212C475.087 329.957 487.575 349.189 492.975 370.85C484.663 371.78 476.453 373.47 468.45 375.9C465.091 363.137 458.424 351.486 449.123 342.122C439.822 332.759 428.215 326.015 415.475 322.571C402.734 319.126 389.31 319.104 376.558 322.506C363.806 325.908 352.178 332.613 342.845 341.945C333.513 351.278 326.808 362.906 323.406 375.658C320.004 388.41 320.026 401.834 323.471 414.575C326.915 427.315 333.659 438.922 343.022 448.223C352.386 457.524 364.037 464.191 376.8 467.55C374.372 475.545 372.682 483.746 371.75 492.05C348.128 486.081 327.496 471.696 313.725 451.596C299.955 431.496 293.992 407.062 296.956 382.879C299.92 358.695 311.607 336.424 329.824 320.244C348.04 304.064 371.535 295.088 395.9 295V295ZM620.9 507.5C620.9 537.337 609.047 565.952 587.949 587.05C566.852 608.147 538.237 620 508.4 620C478.563 620 449.948 608.147 428.85 587.05C407.753 565.952 395.9 537.337 395.9 507.5C395.9 477.663 407.753 449.048 428.85 427.95C449.948 406.853 478.563 395 508.4 395C538.237 395 566.852 406.853 587.949 427.95C609.047 449.048 620.9 477.663 620.9 507.5V507.5ZM520.9 457.5C520.9 454.185 519.583 451.005 517.239 448.661C514.895 446.317 511.715 445 508.4 445C505.085 445 501.905 446.317 499.561 448.661C497.217 451.005 495.9 454.185 495.9 457.5V495H458.4C455.085 495 451.905 496.317 449.561 498.661C447.217 501.005 445.9 504.185 445.9 507.5C445.9 510.815 447.217 513.995 449.561 516.339C451.905 518.683 455.085 520 458.4 520H495.9V557.5C495.9 560.815 497.217 563.995 499.561 566.339C501.905 568.683 505.085 570 508.4 570C511.715 570 514.895 568.683 517.239 566.339C519.583 563.995 520.9 560.815 520.9 557.5V520H558.4C561.715 520 564.895 518.683 567.239 516.339C569.583 513.995 570.9 510.815 570.9 507.5C570.9 504.185 569.583 501.005 567.239 498.661C564.895 496.317 561.715 495 558.4 495H520.9V457.5Z" fill="#05445E"/>
</svg>
