<svg width="24" height="22" viewBox="0 0 24 22" fill="none" xmlns="http://www.w3.org/2000/svg">
<path d="M21.0938 3.125V18.75H22.6562C22.8635 18.75 23.0622 18.8323 23.2087 18.9788C23.3552 19.1253 23.4375 19.324 23.4375 19.5312V21.0938C23.4375 21.301 23.3552 21.4997 23.2087 21.6462C23.0622 21.7927 22.8635 21.875 22.6562 21.875H14.8438C14.6365 21.875 14.4378 21.7927 14.2913 21.6462C14.1448 21.4997 14.0625 21.301 14.0625 21.0938V19.5312C14.0625 19.324 14.1448 19.1253 14.2913 18.9788C14.4378 18.8323 14.6365 18.75 14.8438 18.75H16.4062V12.5H7.03125V18.75H8.59375C8.80095 18.75 8.99966 18.8323 9.14618 18.9788C9.29269 19.1253 9.375 19.324 9.375 19.5312V21.0938C9.375 21.301 9.29269 21.4997 9.14618 21.6462C8.99966 21.7927 8.80095 21.875 8.59375 21.875H0.78125C0.57405 21.875 0.375336 21.7927 0.228823 21.6462C0.08231 21.4997 0 21.301 0 21.0938V19.5312C0 19.324 0.08231 19.1253 0.228823 18.9788C0.375336 18.8323 0.57405 18.75 0.78125 18.75H2.34375V3.125H0.78125C0.57405 3.125 0.375336 3.04269 0.228823 2.89618C0.08231 2.74966 0 2.55095 0 2.34375V0.78125C0 0.57405 0.08231 0.375336 0.228823 0.228823C0.375336 0.08231 0.57405 0 0.78125 0H8.59375C8.80095 0 8.99966 0.08231 9.14618 0.228823C9.29269 0.375336 9.375 0.57405 9.375 0.78125V2.34375C9.375 2.55095 9.29269 2.74966 9.14618 2.89618C8.99966 3.04269 8.80095 3.125 8.59375 3.125H7.03125V9.375H16.4062V3.125H14.8438C14.6365 3.125 14.4378 3.04269 14.2913 2.89618C14.1448 2.74966 14.0625 2.55095 14.0625 2.34375V0.78125C14.0625 0.57405 14.1448 0.375336 14.2913 0.228823C14.4378 0.08231 14.6365 0 14.8438 0H22.6562C22.8635 0 23.0622 0.08231 23.2087 0.228823C23.3552 0.375336 23.4375 0.57405 23.4375 0.78125V2.34375C23.4375 2.55095 23.3552 2.74966 23.2087 2.89618C23.0622 3.04269 22.8635 3.125 22.6562 3.125H21.0938Z" fill="white"/>
</svg>
