<svg width="17" height="23" viewBox="0 0 17 23" fill="none" xmlns="http://www.w3.org/2000/svg">
<path d="M16.3125 1.34375V2.90625C16.3125 3.11345 16.2302 3.31216 16.0837 3.45868C15.9372 3.60519 15.7385 3.6875 15.5312 3.6875H12.4668L8.56055 19.3125H10.8438C11.051 19.3125 11.2497 19.3948 11.3962 19.5413C11.5427 19.6878 11.625 19.8865 11.625 20.0938V21.6562C11.625 21.8635 11.5427 22.0622 11.3962 22.2087C11.2497 22.3552 11.051 22.4375 10.8438 22.4375H1.46875C1.26155 22.4375 1.06284 22.3552 0.916323 22.2087C0.76981 22.0622 0.6875 21.8635 0.6875 21.6562V20.0938C0.6875 19.8865 0.76981 19.6878 0.916323 19.5413C1.06284 19.3948 1.26155 19.3125 1.46875 19.3125H4.5332L8.43945 3.6875H6.15625C5.94905 3.6875 5.75034 3.60519 5.60382 3.45868C5.45731 3.31216 5.375 3.11345 5.375 2.90625V1.34375C5.375 1.13655 5.45731 0.937836 5.60382 0.791323C5.75034 0.64481 5.94905 0.5625 6.15625 0.5625H15.5312C15.7385 0.5625 15.9372 0.64481 16.0837 0.791323C16.2302 0.937836 16.3125 1.13655 16.3125 1.34375Z" fill="white"/>
</svg>
