<svg width="25" height="25" viewBox="0 0 25 25" fill="none" xmlns="http://www.w3.org/2000/svg">
<path d="M15.9478 9.05232C18.8652 11.9727 18.8251 16.6548 15.9654 19.5303C15.9601 19.5362 15.9537 19.5426 15.9478 19.5484L12.6666 22.8297C9.77255 25.7237 5.06411 25.7233 2.1705 22.8297C-0.723541 19.9361 -0.723541 15.2271 2.1705 12.3336L3.98232 10.5218C4.46279 10.0413 5.29023 10.3606 5.31503 11.0396C5.34667 11.905 5.50185 12.7743 5.78818 13.6139C5.88515 13.8982 5.81586 14.2126 5.60346 14.425L4.96445 15.064C3.59599 16.4325 3.55307 18.6607 4.90805 20.0426C6.27641 21.438 8.52553 21.4463 9.90439 20.0675L13.1856 16.7867C14.5622 15.4102 14.5564 13.1853 13.1856 11.8145C13.0049 11.6342 12.8229 11.494 12.6807 11.3961C12.5801 11.327 12.4971 11.2354 12.4382 11.1285C12.3793 11.0217 12.3462 10.9025 12.3415 10.7806C12.3222 10.2646 12.505 9.73293 12.9127 9.32522L13.9407 8.29714C14.2103 8.02756 14.6332 7.99446 14.9458 8.21262C15.3038 8.4626 15.6391 8.74358 15.9478 9.05232ZM22.8294 2.17039C19.9358 -0.723267 15.2274 -0.723657 12.3333 2.17039L9.05209 5.45164C9.04623 5.4575 9.03989 5.46384 9.03452 5.4697C6.17485 8.34529 6.13476 13.0274 9.05209 15.9477C9.36082 16.2565 9.69612 16.5374 10.0541 16.7874C10.3667 17.0055 10.7896 16.9724 11.0592 16.7029L12.0872 15.6748C12.4949 15.2671 12.6777 14.7354 12.6584 14.2194C12.6537 14.0975 12.6206 13.9783 12.5617 13.8715C12.5028 13.7646 12.4198 13.673 12.3192 13.6039C12.177 13.506 11.995 13.3658 11.8143 13.1855C10.4435 11.8147 10.4377 9.58982 11.8143 8.21331L15.0955 4.93254C16.4744 3.55369 18.7234 3.56199 20.0918 4.95745C21.4468 6.33928 21.4039 8.56751 20.0354 9.93596L19.3964 10.575C19.184 10.7874 19.1147 11.1018 19.2117 11.3861C19.498 12.2257 19.6532 13.095 19.6849 13.9604C19.7097 14.6394 20.5371 14.9587 21.0176 14.4782L22.8294 12.6664C25.7235 9.77292 25.7235 5.06394 22.8294 2.17039Z" fill="white"/>
</svg>
